<?xml version="1.0" encoding="UTF-8" standalone="no"?>
<svg
   version="1.0"
   viewBox="0 0 120 120"
   id="svg31"
   sodipodi:docname="Ringdown Logo Browser.svg"
   inkscape:version="1.2.2 (732a01da63, 2022-12-09)"
   xmlns:inkscape="http://www.inkscape.org/namespaces/inkscape"
   xmlns:sodipodi="http://sodipodi.sourceforge.net/DTD/sodipodi-0.dtd"
   xmlns="http://www.w3.org/2000/svg"
   xmlns:svg="http://www.w3.org/2000/svg">
  <defs
     id="defs35" />
  <sodipodi:namedview
     id="namedview33"
     pagecolor="#505050"
     bordercolor="#eeeeee"
     borderopacity="1"
     inkscape:showpageshadow="0"
     inkscape:pageopacity="0"
     inkscape:pagecheckerboard="0"
     inkscape:deskcolor="#505050"
     showgrid="false"
     inkscape:zoom="8.0000004"
     inkscape:cx="43.374998"
     inkscape:cy="62.124997"
     inkscape:window-width="2560"
     inkscape:window-height="1381"
     inkscape:window-x="-8"
     inkscape:window-y="-8"
     inkscape:window-maximized="1"
     inkscape:current-layer="svg31" />
  <path
     style="fill:#e6e6e6;stroke:#333333;stroke-width:0.6;stroke-dasharray:none"
     d="m 27.878982,36.134303 c -1.108952,0.03675 -1.020625,10.120484 -1.212606,12.55567 -0.13699,1.737645 -0.368096,7.22497 -0.728586,14.086263 -0.594994,11.324674 -1.468866,15.751569 -1.887468,17.396278 -0.6965,1.650958 -1.331011,1.882272 -2.137879,1.8956 -0.883363,0.0094 -1.530165,-0.74673 -2.074956,-1.323664 -0.439065,-0.464969 -0.683854,-2.002369 -1.023181,-2.940564 -1.644991,-7.869328 -2.959128,-14.900458 -3.840193,-21.415481 -0.484432,-2.117311 -1.209261,-5.751576 -1.828231,-5.748809 -0.662509,0.003 -1.516676,2.10964 -2.895188,6.97357 C 8.8792291,62.452231 8.5179501,64.3759 7.8602691,66.529445 7.25582,68.508685 6.693952,70.3538 5.718623,70.021288 4.728168,69.68362 5.113612,65.763536 8.2400211,56.064991 c 2.1460109,-6.657219 3.5843879,-9.207862 5.0623539,-9.260418 1.229761,-0.04373 2.217571,3.221274 2.724106,4.839465 1.417935,4.110247 3.906871,26.884232 5.706489,26.853177 1.223466,-0.03438 2.042655,-13.559402 2.302097,-20.418804 0.273265,-4.718222 0.64926,-11.933594 0.845963,-14.485079 0.528988,-6.861651 0.881135,-11.738472 3.071607,-11.673334 6.037096,-0.02738 2.384433,61.394104 5.128733,61.538711 2.383521,-0.0024 1.077456,-75.840773 5.600424,-75.728357 3.145102,-0.01623 3.926724,27.444137 4.73033,34.872845 0.895248,15.222215 0.975737,31.574004 1.87921,31.580097 0.701535,0.0047 1.166503,-4.311262 1.238549,-5.006125 0.123954,-1.195512 0.754196,-5.320914 1.10445,-10.856131 0.868736,-13.729027 1.748628,-22.844613 4.19983,-24.996798 0.423513,-0.371849 0.637243,-0.451498 1.211548,-0.451498 2.297913,0 3.192553,3.065855 4.895584,13.592319 0.867275,5.360626 2.091774,12.265255 3.690911,12.194812 2.14137,-0.155021 3.123527,-6.973815 4.207278,-9.831461 0.797642,-1.906358 1.879217,-5.266453 3.627596,-5.373982 1.364377,0.09375 2.116837,1.592752 4.047976,4.49101 1.643937,2.467225 3.001103,5.485428 4.100354,5.474827 1.4403,-0.843837 2.401098,-2.853395 3.339608,-3.951965 1.498635,-1.748465 2.499768,-2.618835 3.681524,-2.66345 1.277292,-0.04822 3.054675,1.711888 4.925291,2.944579 2.167579,1.428383 3.856702,2.060989 5.8709,1.446028 1.65569,-0.505504 3.653987,-1.624714 5.153267,-2.36748 1.16822,-0.578755 4.11593,-1.084382 4.13412,-0.02241 0.0101,0.588229 -3.06636,1.930152 -3.92621,2.427997 -2.01381,1.165973 -3.21122,2.343826 -6.315697,2.343826 -1.245836,0 -3.277551,-0.115485 -4.657008,-0.769027 -0.57803,-0.273852 -1.491727,-0.840249 -2.565159,-1.60241 -1.073434,-0.762159 -1.877403,-1.785549 -2.664847,-1.820978 -0.795974,-0.03581 -1.552789,1.246603 -2.491309,2.550898 -2.383373,3.312261 -3.195729,4.605006 -4.465648,4.606262 -1.357235,0.0013 -2.863474,-2.116006 -4.425053,-4.179295 -1.498255,-1.979619 -2.667711,-5.110685 -3.60732,-5.090618 -0.845017,0.01805 -1.636005,3.170203 -3.085997,7.892434 -1.008701,3.285062 -2.273907,5.527416 -3.642437,6.455565 -0.528294,0.358294 -0.759709,0.420189 -1.57102,0.420189 -0.79642,0 -1.049819,-0.06509 -1.555041,-0.399429 -1.297141,-0.858407 -1.5033,-2.167421 -2.437195,-5.021815 -0.61493,-1.879497 -1.049152,-4.035911 -1.589307,-7.497759 -0.612133,-3.923152 -1.001522,-6.44069 -1.078095,-7.096942 -0.157923,-1.353442 -0.570111,-4.777933 -1.627243,-4.74716 -1.151838,0.03353 -1.398036,5.657021 -1.514586,6.674193 -0.204755,1.786964 -0.66075,6.343564 -1.262344,13.384449 -0.548505,4.945123 -1.447163,20.918459 -5.007128,20.911233 -3.374573,0.0034 -3.125148,-17.169305 -3.378652,-22.676208 C 41.677742,63.419834 41.560213,54.95562 40.133356,36.191325 39.936824,33.606779 39.846189,24.169537 38.822415,24.146858 36.994868,24.104518 39.66642,95.875822 32.881276,96.096427 27.41948,95.942988 31.223225,36.214013 27.878982,36.134303 Z"
     id="path485"
     sodipodi:nodetypes="cssccsccsssssscccsccccsssssscccsccssssssssssssssssssssssscccsccc" />
  <text
     xml:space="preserve"
     style="fill:none;stroke:#000000"
     x="74"
     y="74"
     id="text825"><tspan
       sodipodi:role="line"
       id="tspan823" /></text>
  <text
     xml:space="preserve"
     style="fill:#000000;stroke:none"
     x="70.710678"
     y="83.261826"
     id="text879"><tspan
       sodipodi:role="line"
       id="tspan877" /></text>
  <text
     xml:space="preserve"
     style="fill:#000000;stroke:none"
     x="67.617088"
     y="84.676041"
     id="text883"><tspan
       sodipodi:role="line"
       id="tspan881"
       x="67.617088"
       y="84.676041" /></text>
  <g
     aria-label="RinG

Down"
     transform="scale(0.84220555,1.1873586)"
     id="text170"
     style="font-size:14.7742px;letter-spacing:0px;word-spacing:0px;opacity:1;fill:#ececec;stroke:#333333;stroke-width:0.6">
    <path
       d="m 83.705697,34.579463 v -2.09205 H 73.238233 v 2.09205 z m 1.046025,-4.191314 q 0.440052,0 0.743038,0.310201 0.310201,0.302986 0.310201,0.735824 v 4.191314 q 0,0.432838 -0.310201,0.743038 -0.302986,0.302987 -0.743038,0.302987 h -3.138075 v 2.09205 h 3.138075 q 0.440052,0 0.743038,0.3102 0.310201,0.302987 0.310201,0.743038 0,0.432838 -0.310201,0.743039 -0.302986,0.302986 -0.743038,0.302986 h -4.1841 q -0.432838,0 -0.743038,-0.302986 -0.302987,-0.310201 -0.302987,-0.743039 v -3.145288 h -6.283364 v 3.145288 q 0,0.432838 -0.3102,0.743039 -0.302987,0.302986 -0.735824,0.302986 -0.432838,0 -0.743039,-0.302986 -0.302986,-0.310201 -0.302986,-0.743039 v -8.382627 q 0,-0.432838 0.302986,-0.735824 0.310201,-0.310201 0.743039,-0.310201 z"
       style="font-family:Robtronika;-inkscape-font-specification:Robtronika"
       id="path175" />
    <path
       d="m 101.50976,38.763563 q 0.43284,0 0.73583,0.3102 0.3102,0.302987 0.3102,0.735824 0,0.432838 -0.3102,0.743039 -0.30299,0.3102 -0.73583,0.3102 H 88.943036 q -0.432838,0 -0.743038,-0.3102 -0.302987,-0.310201 -0.302987,-0.743039 0,-0.432837 0.302987,-0.735824 0.3102,-0.3102 0.743038,-0.3102 h 5.237339 v -6.283364 h -5.237339 q -0.432838,0 -0.743038,-0.302987 -0.302987,-0.3102 -0.302987,-0.743038 0,-0.432838 0.302987,-0.735824 0.3102,-0.310201 0.743038,-0.310201 h 12.566724 q 0.43284,0 0.73583,0.310201 0.3102,0.302986 0.3102,0.735824 0,0.432838 -0.3102,0.743038 -0.30299,0.302987 -0.73583,0.302987 h -5.237335 v 6.283364 z"
       style="font-family:Robtronika;-inkscape-font-specification:Robtronika"
       id="path177" />
    <path
       d="m 119.30662,39.816801 q 0,0.432838 -0.3102,0.743039 -0.30299,0.302986 -0.73583,0.302986 h -2.09205 q -0.44005,0 -0.74304,-0.302986 l -8.07242,-8.072427 h -0.61319 v 7.329388 q 0,0.432838 -0.3102,0.743039 -0.30299,0.302986 -0.73583,0.302986 -0.43283,0 -0.74303,-0.302986 -0.30299,-0.310201 -0.30299,-0.743039 v -8.375413 q 0,-0.432838 0.30299,-0.735824 0.3102,-0.310201 0.74303,-0.310201 h 2.09205 q 0.44006,0 0.74304,0.302987 l 8.07243,8.072426 h 0.61319 v -7.329388 q 0,-0.432838 0.30298,-0.735824 0.3102,-0.310201 0.74304,-0.310201 0.43284,0 0.73583,0.310201 0.3102,0.302986 0.3102,0.735824 z"
       style="font-family:Robtronika;-inkscape-font-specification:Robtronika"
       id="path179" />
    <path
       d="m 136.05744,35.625488 v 4.191313 q 0,0.432838 -0.3102,0.743039 -0.30298,0.302986 -0.73582,0.302986 h -10.47468 q -0.43284,0 -0.73582,-0.3102 l -2.09205,-2.09205 q -0.3102,-0.302987 -0.3102,-0.735824 v -4.191314 q 0,-0.432838 0.3102,-0.743039 l 2.09205,-2.092049 q 0.30298,-0.302987 0.73582,-0.302987 h 10.47468 q 0.43284,0 0.73582,0.310201 0.3102,0.302986 0.3102,0.735824 0,0.432838 -0.3102,0.743038 -0.30298,0.302987 -0.73582,0.302987 h -10.03463 l -1.48607,1.478863 V 37.2847 l 1.48607,1.486076 h 8.9886 v -2.099263 h -5.23733 q -0.43284,0 -0.74304,-0.302987 -0.30299,-0.3102 -0.30299,-0.743038 0,-0.432838 0.30299,-0.735825 0.3102,-0.3102 0.74304,-0.3102 h 6.28336 q 0.43284,0 0.73582,0.3102 0.3102,0.302987 0.3102,0.735825 z"
       style="font-family:Robtronika;-inkscape-font-specification:Robtronika"
       id="path181" />
    <path
       d="m 80.134784,71.406526 3.138075,-3.138075 -3.138075,-3.145289 h -6.896551 v 6.283364 z m 5.359976,-3.881113 q 0.310201,0.3102 0.310201,0.743038 0,0.432838 -0.310201,0.735825 l -4.191314,4.191313 Q 81.00046,73.50579 80.567622,73.50579 h -8.375413 q -0.302987,0 -0.541048,-0.158707 -0.504977,-0.324629 -0.504977,-0.894532 v -8.375414 q 0,-0.432837 0.302986,-0.735824 0.310201,-0.3102 0.743039,-0.3102 h 8.375413 q 0.432838,0 0.743038,0.3102 z"
       style="font-family:Robtronika;-inkscape-font-specification:Robtronika"
       id="path183" />
    <path
       d="m 100.46374,69.934877 v -4.804501 h -8.988602 l -1.486077,1.478863 v 4.804501 h 8.988601 z m 1.04602,-6.89655 q 0.43284,0 0.73583,0.3102 0.3102,0.302987 0.3102,0.735824 v 6.283364 q 0,0.432838 -0.3102,0.735824 l -2.09205,2.099264 Q 99.850552,73.50579 99.4105,73.50579 H 88.943036 q -0.432838,0 -0.743038,-0.302987 -0.302987,-0.3102 -0.302987,-0.743038 v -6.283364 q 0,-0.432838 0.310201,-0.735824 l 2.09205,-2.099264 q 0.302986,-0.302986 0.735824,-0.302986 z"
       style="font-family:Robtronika;-inkscape-font-specification:Robtronika"
       id="path185" />
    <path
       d="m 119.30662,72.459765 q 0,0.432838 -0.3102,0.743038 -0.30299,0.302987 -0.73583,0.302987 -0.43284,0 -0.74304,-0.310201 l -5.54032,-5.540325 -5.54033,5.540325 q -0.3102,0.310201 -0.74304,0.310201 -0.43283,0 -0.74303,-0.302987 -0.30299,-0.3102 -0.30299,-0.743038 v -8.375414 q 0,-0.432837 0.30299,-0.735824 0.3102,-0.3102 0.74303,-0.3102 0.43284,0 0.73583,0.3102 0.3102,0.302987 0.3102,0.735824 v 5.843312 l 4.4943,-4.4943 q 0.3102,-0.302987 0.74304,-0.302987 0.43284,0 0.74304,0.302987 l 4.4943,4.4943 v -5.843312 q 0,-0.432837 0.30298,-0.735824 0.3102,-0.3102 0.74304,-0.3102 0.43284,0 0.73583,0.3102 0.3102,0.302987 0.3102,0.735824 z"
       style="font-family:Robtronika;-inkscape-font-specification:Robtronika"
       id="path187" />
    <path
       d="m 136.05744,72.459765 q 0,0.432838 -0.3102,0.743038 -0.30298,0.302987 -0.73582,0.302987 h -2.09205 q -0.44005,0 -0.74304,-0.302987 l -8.07243,-8.072427 h -0.61318 v 7.329389 q 0,0.432838 -0.3102,0.743038 -0.30299,0.302987 -0.73583,0.302987 -0.43284,0 -0.74304,-0.302987 -0.30298,-0.3102 -0.30298,-0.743038 v -8.375414 q 0,-0.432837 0.30298,-0.735824 0.3102,-0.3102 0.74304,-0.3102 h 2.09205 q 0.44005,0 0.74304,0.302986 l 8.07243,8.072427 h 0.61318 v -7.329389 q 0,-0.432837 0.30299,-0.735824 0.3102,-0.3102 0.74304,-0.3102 0.43284,0 0.73582,0.3102 0.3102,0.302987 0.3102,0.735824 z"
       style="font-family:Robtronika;-inkscape-font-specification:Robtronika"
       id="path189" />
  </g>
</svg>
